<svg width="28" height="28" viewBox="0 0 33 34" fill="none" xmlns="http://www.w3.org/2000/svg">
<path d="M28.2973 10.3934L29.6088 7.50297L32.5141 6.19817C32.659 6.13247 32.7819 6.0267 32.868 5.89345C32.9542 5.7602 33 5.6051 33 5.44666C33 5.28822 32.9542 5.13313 32.868 4.99988C32.7819 4.86663 32.659 4.76085 32.5141 4.69516L29.6088 3.39035L28.2973 0.483433C28.2313 0.339253 28.1249 0.217013 27.991 0.131295C27.8571 0.0455775 27.7012 0 27.5419 0C27.3827 0 27.2268 0.0455775 27.0928 0.131295C26.9589 0.217013 26.8526 0.339253 26.7866 0.483433L25.475 3.37383L22.5532 4.67864C22.4082 4.74433 22.2854 4.85011 22.1992 4.98336C22.1131 5.11661 22.0672 5.27171 22.0672 5.43014C22.0672 5.58858 22.1131 5.74368 22.1992 5.87693C22.2854 6.01018 22.4082 6.11596 22.5532 6.18165L25.4584 7.48646L26.77 10.3934C27.0688 11.0375 27.9985 11.0375 28.2973 10.3934ZM15.0825 12.8709L12.4428 7.09006C11.8618 5.80177 10.0024 5.80177 9.42136 7.09006L6.78172 12.8709L0.971189 15.497C-0.32373 16.0916 -0.32373 17.9249 0.971189 18.503L6.78172 21.1291L9.42136 26.9099C10.019 28.1982 11.8618 28.1982 12.4428 26.9099L15.0825 21.1291L20.893 18.503C22.1879 17.9084 22.1879 16.0751 20.893 15.497L15.0825 12.8709ZM26.77 23.6066L25.4584 26.497L22.5532 27.8018C22.4082 27.8675 22.2854 27.9733 22.1992 28.1066C22.1131 28.2398 22.0672 28.3949 22.0672 28.5533C22.0672 28.7118 22.1131 28.8669 22.1992 29.0001C22.2854 29.1334 22.4082 29.2392 22.5532 29.3048L25.4584 30.6096L26.77 33.5166C26.836 33.6607 26.9423 33.783 27.0762 33.8687C27.2102 33.9544 27.3661 34 27.5253 34C27.6846 34 27.8405 33.9544 27.9744 33.8687C28.1083 33.783 28.2147 33.6607 28.2807 33.5166L29.5922 30.6262L32.5141 29.3214C32.659 29.2557 32.7819 29.1499 32.868 29.0166C32.9542 28.8834 33 28.7283 33 28.5699C33 28.4114 32.9542 28.2563 32.868 28.1231C32.7819 27.9898 32.659 27.884 32.5141 27.8183L29.6088 26.5135L28.2973 23.6066C28.2293 23.4622 28.1213 23.3401 27.9861 23.2546C27.8508 23.169 27.6939 23.1236 27.5336 23.1236C27.3734 23.1236 27.2164 23.169 27.0812 23.2546C26.9459 23.3401 26.838 23.4622 26.77 23.6066Z" fill="#F8FAFC" fill-opacity="0.6"/>
</svg>
