<svg width="34" height="34" viewBox="0 0 34 34" fill="none" xmlns="http://www.w3.org/2000/svg">
<path d="M15.5478 4.25264C15.6308 4.61896 15.5648 5.00322 15.3645 5.32094C15.1642 5.63867 14.8459 5.86384 14.4797 5.94697C12.1239 6.4841 10.0015 7.76005 8.42216 9.5886C6.8428 11.4171 5.88916 13.7026 5.70042 16.1114C5.51168 18.5202 6.09771 20.9263 7.373 22.9785C8.64828 25.0308 10.5461 26.6217 12.7894 27.5192C15.0327 28.4167 17.5041 28.5737 19.843 27.9674C22.1819 27.3611 24.2658 26.0232 25.7906 24.1489C27.3154 22.2746 28.2013 19.9621 28.319 17.5487C28.4367 15.1354 27.78 12.7476 26.4448 10.7339C26.3419 10.5789 26.2704 10.4052 26.2346 10.2226C26.1988 10.04 26.1992 9.85217 26.236 9.66978C26.3103 9.30142 26.5278 8.97764 26.8408 8.76968C27.1538 8.56171 27.5365 8.4866 27.9049 8.56086C28.0873 8.59762 28.2607 8.66996 28.4151 8.77373C28.5695 8.87749 28.702 9.01066 28.805 9.16564C30.3489 11.4864 31.1706 14.2125 31.1666 16.9998C31.1666 24.8241 24.8242 31.1665 16.9999 31.1665C9.17567 31.1665 2.83325 24.8241 2.83325 16.9998C2.83325 10.2565 7.54367 4.6153 13.8535 3.18447C14.2198 3.10154 14.6041 3.16747 14.9218 3.36778C15.2395 3.56808 15.4647 3.88636 15.5478 4.25264ZM18.4166 4.26964C18.4164 4.05712 18.4636 3.84724 18.5547 3.65523C18.6457 3.46322 18.7785 3.29392 18.9432 3.15961C19.1078 3.02531 19.3004 2.92937 19.5068 2.87878C19.7132 2.82819 19.9283 2.82421 20.1364 2.86714L20.2993 2.91105L24.5309 4.32205C24.8747 4.43566 25.1619 4.67659 25.3336 4.99535C25.5053 5.3141 25.5485 5.6865 25.4542 6.03607C25.3599 6.38564 25.1353 6.68585 24.8266 6.87504C24.518 7.06423 24.1485 7.12805 23.7943 7.05339L23.6356 7.01089L21.2499 6.21472V16.9998C21.2495 17.8898 20.9697 18.7573 20.4499 19.4798C19.9301 20.2022 19.1967 20.7433 18.3529 21.0267C17.5092 21.31 16.5978 21.3213 15.7473 21.059C14.8968 20.7967 14.1502 20.274 13.6126 19.5646C13.0751 18.8553 12.7738 17.9951 12.7513 17.1053C12.7288 16.2156 12.9861 15.3412 13.4871 14.6056C13.9881 13.8699 14.7074 13.3101 15.5435 13.0051C16.3797 12.7001 17.2904 12.6653 18.1474 12.9056L18.4166 12.9906V4.27105V4.26964Z" fill="#F8FAFC" fill-opacity="0.6"/>
</svg>
