<svg width="34" height="34" viewBox="0 0 34 34" fill="none" xmlns="http://www.w3.org/2000/svg">
<path fill-rule="evenodd" clip-rule="evenodd" d="M16.9099 0H17.0901C20.7416 0 23.6023 9.42585e-08 25.8353 0.300465C28.1188 0.607256 29.9216 1.2493 31.3369 2.66307C32.5325 3.8586 33.1793 5.33563 33.5351 7.15423C33.883 8.93805 33.9684 11.133 33.9921 13.8277C33.9946 14.1423 33.8721 14.445 33.6514 14.6692C33.4308 14.8934 33.1301 15.0207 32.8155 15.0233C32.501 15.0258 32.1983 14.9032 31.9741 14.6826C31.7499 14.4619 31.6225 14.1613 31.62 13.8467C31.5963 11.1441 31.5093 9.15312 31.2073 7.60967C30.9115 6.09944 30.426 5.10633 29.6591 4.34093C28.7577 3.43953 27.54 2.92242 25.5174 2.65042C23.4616 2.37526 20.7606 2.37209 17 2.37209C13.2394 2.37209 10.5384 2.37526 8.4826 2.65042C6.46 2.92242 5.24074 3.44112 4.33935 4.34093C3.43953 5.24233 2.92242 6.46 2.65042 8.4826C2.37526 10.5384 2.37209 13.2394 2.37209 17C2.37209 20.7606 2.37526 23.4616 2.65042 25.5174C2.92242 27.54 3.44112 28.7593 4.34093 29.6607C5.24233 30.5605 6.46 31.0776 8.4826 31.3496C10.5384 31.6247 13.2394 31.6279 17 31.6279C17.3146 31.6279 17.6162 31.7529 17.8387 31.9753C18.0611 32.1977 18.186 32.4994 18.186 32.814C18.186 33.1285 18.0611 33.4302 17.8387 33.6526C17.6162 33.875 17.3146 34 17 34H16.9099C13.2584 34 10.3977 34 8.16474 33.6995C5.88121 33.3927 4.07842 32.7507 2.66307 31.3369C1.24772 29.9216 0.607256 28.1188 0.300465 25.8337C9.42585e-08 23.6023 0 20.7416 0 17.0901V16.9099C0 13.2584 9.42585e-08 10.3977 0.300465 8.16474C0.607256 5.88121 1.2493 4.07842 2.66307 2.66307C4.07842 1.24772 5.88121 0.607256 8.16633 0.300465C10.3977 9.42585e-08 13.2584 0 16.9099 0ZM11.0698 17C11.0698 15.4272 11.6946 13.9188 12.8067 12.8067C13.9188 11.6946 15.4272 11.0698 17 11.0698C18.5728 11.0698 20.0812 11.6946 21.1933 12.8067C22.3054 13.9188 22.9302 15.4272 22.9302 17C22.9302 18.5728 22.3054 20.0812 21.1933 21.1933C20.0812 22.3054 18.5728 22.9302 17 22.9302C15.4272 22.9302 13.9188 22.3054 12.8067 21.1933C11.6946 20.0812 11.0698 18.5728 11.0698 17ZM17 13.4419C16.0563 13.4419 15.1513 13.8167 14.484 14.484C13.8167 15.1513 13.4419 16.0563 13.4419 17C13.4419 17.9437 13.8167 18.8487 14.484 19.516C15.1513 20.1833 16.0563 20.5581 17 20.5581C17.9437 20.5581 18.8487 20.1833 19.516 19.516C20.1833 18.8487 20.5581 17.9437 20.5581 17C20.5581 16.0563 20.1833 15.1513 19.516 14.484C18.8487 13.8167 17.9437 13.4419 17 13.4419ZM28.0698 15.814C28.3843 15.814 28.686 15.9389 28.9084 16.1613C29.1309 16.3838 29.2558 16.6854 29.2558 17C29.2558 17.9437 29.6307 18.8487 30.298 19.516C30.9653 20.1833 31.8703 20.5581 32.814 20.5581C33.1285 20.5581 33.4302 20.6831 33.6526 20.9055C33.875 21.128 34 21.4296 34 21.7442C34 22.0587 33.875 22.3604 33.6526 22.5828C33.4302 22.8053 33.1285 22.9302 32.814 22.9302C31.5305 22.9321 30.2815 22.5157 29.2558 21.7442V29.6512C29.2556 30.5988 28.9459 31.5205 28.3738 32.276C27.8016 33.0314 26.9984 33.5793 26.0862 33.8363C25.174 34.0932 24.2029 34.0452 23.3205 33.6995C22.4382 33.3538 21.6929 32.7293 21.1981 31.9211C20.7032 31.1129 20.486 30.1652 20.5793 29.2221C20.6726 28.2791 21.0714 27.3923 21.715 26.6967C22.3587 26.0012 23.2119 25.5349 24.1449 25.3688C25.0779 25.2027 26.0396 25.346 26.8837 25.7767V17C26.8837 16.6854 27.0087 16.3838 27.2311 16.1613C27.4535 15.9389 27.7552 15.814 28.0698 15.814ZM26.8837 29.6512C26.8837 29.1269 26.6755 28.6241 26.3047 28.2534C25.934 27.8827 25.4312 27.6744 24.907 27.6744C24.3827 27.6744 23.8799 27.8827 23.5092 28.2534C23.1385 28.6241 22.9302 29.1269 22.9302 29.6512C22.9302 30.1754 23.1385 30.6782 23.5092 31.0489C23.8799 31.4196 24.3827 31.6279 24.907 31.6279C25.4312 31.6279 25.934 31.4196 26.3047 31.0489C26.6755 30.6782 26.8837 30.1754 26.8837 29.6512Z" fill="#F8FAFC" fill-opacity="0.6"/>
</svg>
