<svg width="16" height="24" viewBox="0 0 16 24" fill="none" xmlns="http://www.w3.org/2000/svg">
<path fill-rule="evenodd" clip-rule="evenodd" d="M7.968 0.000150465C7.6701 0.00768734 7.38689 0.13759 7.17919 0.361964C6.97149 0.586337 6.85586 0.887287 6.85715 1.20018V15.0426C5.98568 14.5143 4.97255 14.3026 3.97487 14.4405C2.97719 14.5784 2.05072 15.0581 1.33913 15.8052C0.627538 16.5523 0.170596 17.5251 0.0391659 18.5727C-0.0922645 19.6203 0.109161 20.6841 0.612205 21.5992C1.11525 22.5143 1.8918 23.2296 2.82143 23.6341C3.75106 24.0386 4.78182 24.1097 5.75386 23.8364C6.7259 23.5631 7.5849 22.9607 8.19764 22.1225C8.81039 21.2844 9.14263 20.2573 9.14286 19.2007V7.41636L14.6697 8.38359C14.8334 8.41216 15.001 8.40297 15.1609 8.35667C15.3208 8.31037 15.4692 8.22807 15.5958 8.11548C15.7224 8.00288 15.8241 7.8627 15.8939 7.70467C15.9637 7.54664 15.9999 7.37455 16 7.20036V2.40022C15.9999 2.11616 15.9038 1.84136 15.7288 1.6247C15.5539 1.40804 15.3114 1.26357 15.0446 1.21698L8.20915 0.020551C8.12968 0.00481149 8.04885 -0.00202696 7.968 0.000150465Z" fill="#F8FAFC" fill-opacity="0.6" />
</svg>
