<svg width="34" height="34" viewBox="0 0 34 34" fill="none" xmlns="http://www.w3.org/2000/svg">
<path d="M5.77468 28.2253C8.75182 31.2025 12.7897 32.875 17 32.875C21.2103 32.875 25.2482 31.2025 28.2253 28.2253C31.2025 25.2482 32.875 21.2103 32.875 17C32.875 12.7897 31.2025 8.75182 28.2253 5.77468C25.2482 2.79754 21.2103 1.125 17 1.125C12.7897 1.125 8.75182 2.79754 5.77468 5.77468C2.79754 8.75182 1.125 12.7897 1.125 17C1.125 21.2103 2.79754 25.2482 5.77468 28.2253ZM28.3137 28.3137C25.3131 31.3143 21.2435 33 17 33C12.7565 33 8.68687 31.3143 5.68629 28.3137C2.68571 25.3131 1 21.2435 1 17C1 12.7565 2.68571 8.68687 5.68629 5.68629C8.68687 2.68571 12.7565 1 17 1C21.2435 1 25.3131 2.68571 28.3137 5.68629C31.3143 8.68687 33 12.7565 33 17C33 21.2435 31.3143 25.3131 28.3137 28.3137Z" stroke="#F8FAFC" stroke-opacity="0.6" stroke-width="2"/>
<path d="M17 11.75C15.6076 11.75 14.2723 12.3031 13.2877 13.2877C12.3031 14.2723 11.75 15.6076 11.75 17C11.75 18.3924 12.3031 19.7277 13.2877 20.7123C14.2723 21.6969 15.6076 22.25 17 22.25C18.3924 22.25 19.7277 21.6969 20.7123 20.7123C21.6969 19.7277 22.25 18.3924 22.25 17C22.25 15.6076 21.6969 14.2723 20.7123 13.2877C19.7277 12.3031 18.3924 11.75 17 11.75ZM9.5 17C9.5 15.0109 10.2902 13.1032 11.6967 11.6967C13.1032 10.2902 15.0109 9.5 17 9.5C18.9891 9.5 20.8968 10.2902 22.3033 11.6967C23.7098 13.1032 24.5 15.0109 24.5 17C24.5 18.9891 23.7098 20.8968 22.3033 22.3033C20.8968 23.7098 18.9891 24.5 17 24.5C15.0109 24.5 13.1032 23.7098 11.6967 22.3033C10.2902 20.8968 9.5 18.9891 9.5 17Z" stroke="#F8FAFC" stroke-opacity="0.6" stroke-width="2"/>
<path d="M18.125 17C18.125 17.2984 18.0065 17.5845 17.7955 17.7955C17.5845 18.0065 17.2984 18.125 17 18.125C16.7016 18.125 16.4155 18.0065 16.2045 17.7955C15.9935 17.5845 15.875 17.2984 15.875 17C15.875 16.7016 15.9935 16.4155 16.2045 16.2045C16.4155 15.9935 16.7016 15.875 17 15.875C17.2984 15.875 17.5845 15.9935 17.7955 16.2045C18.0065 16.4155 18.125 16.7016 18.125 17Z" stroke="#F8FAFC" stroke-opacity="0.6" stroke-width="2"/>
</svg>
