<svg width="28" height="20" viewBox="0 0 28 20" fill="none" xmlns="http://www.w3.org/2000/svg">
<path d="M27.0667 13.6364V14.5455H28V13.6364H27.0667ZM0.933333 0.909091V0H0V0.909091H0.933333ZM0.933333 19.0909H0V20H0.933333V19.0909ZM14.9333 13.6364C14.9333 15.3241 15.6217 16.9427 16.8469 18.1361C18.0721 19.3295 19.7339 20 21.4667 20V18.1818C20.229 18.1818 19.042 17.7029 18.1668 16.8505C17.2917 15.998 16.8 14.8419 16.8 13.6364H14.9333ZM21.4667 7.27273C19.7339 7.27273 18.0721 7.94318 16.8469 9.13659C15.6217 10.33 14.9333 11.9486 14.9333 13.6364H16.8C16.8 12.4308 17.2917 11.2747 18.1668 10.4222C19.042 9.5698 20.229 9.09091 21.4667 9.09091V7.27273ZM28 13.6364C28 11.9486 27.3117 10.33 26.0864 9.13659C24.8612 7.94318 23.1994 7.27273 21.4667 7.27273V9.09091C22.7043 9.09091 23.8913 9.5698 24.7665 10.4222C25.6417 11.2747 26.1333 12.4308 26.1333 13.6364H28ZM25.2504 16.2982C24.8182 16.8819 24.2497 17.3571 23.5918 17.6846C22.9339 18.0121 22.2055 18.1825 21.4667 18.1818V20C22.5007 20.0006 23.5201 19.7619 24.4408 19.3036C25.3615 18.8452 26.1572 18.1803 26.7624 17.3636L25.2504 16.2982ZM0.933333 1.81818H5.6V0H0.933333V1.81818ZM5.6 9.09091H0.933333V10.9091H5.6V9.09091ZM1.86667 10V0.909091H0V10H1.86667ZM9.33333 5.45454C9.33333 6.41897 8.94 7.34389 8.23987 8.02584C7.53973 8.70779 6.59014 9.09091 5.6 9.09091V10.9091C7.08521 10.9091 8.50959 10.3344 9.5598 9.31149C10.61 8.28856 11.2 6.90118 11.2 5.45454H9.33333ZM5.6 1.81818C6.59014 1.81818 7.53973 2.2013 8.23987 2.88325C8.94 3.5652 9.33333 4.49012 9.33333 5.45454H11.2C11.2 4.00791 10.61 2.62052 9.5598 1.5976C8.50959 0.574674 7.08521 0 5.6 0V1.81818ZM0.933333 10.9091H7.46667V9.09091H0.933333V10.9091ZM7.46667 18.1818H0.933333V20H7.46667V18.1818ZM1.86667 19.0909V10H0V19.0909H1.86667ZM11.2 14.5455C11.2 15.5099 10.8067 16.4348 10.1065 17.1167C9.4064 17.7987 8.45681 18.1818 7.46667 18.1818V20C8.95188 20 10.3763 19.4253 11.4265 18.4024C12.4767 17.3795 13.0667 15.9921 13.0667 14.5455H11.2ZM7.46667 10.9091C8.45681 10.9091 9.4064 11.2922 10.1065 11.9742C10.8067 12.6561 11.2 13.581 11.2 14.5455H13.0667C13.0667 13.0988 12.4767 11.7114 11.4265 10.6885C10.3763 9.66558 8.95188 9.09091 7.46667 9.09091V10.9091ZM15.8667 14.5455H27.0667V12.7273H15.8667V14.5455ZM16.8 3.63636H26.1333V1.81818H16.8V3.63636Z" fill="#F8FAFC" fill-opacity="0.6"/>
</svg>
