<svg width="30" height="36" viewBox="0 0 30 36" fill="none" xmlns="http://www.w3.org/2000/svg">
<path d="M13.4428 35C13.2399 34.9998 13.0386 34.9684 12.8479 34.9073C12.48 34.7883 12.168 34.5637 11.9618 34.2695C11.7556 33.9753 11.6671 33.6284 11.7106 33.2845L13.0579 22.3273H2.75231C2.43445 22.3278 2.12246 22.2517 1.84985 22.1073C1.57725 21.9629 1.35432 21.7556 1.20502 21.5078C1.05572 21.2599 0.985683 20.9808 1.00243 20.7005C1.01918 20.4201 1.12208 20.149 1.30008 19.9164L15.105 1.68015C15.3233 1.39476 15.6433 1.18198 16.0142 1.07558C16.3851 0.969185 16.7856 0.975272 17.1521 1.09288C17.5044 1.20842 17.8053 1.42111 18.0101 1.69945C18.215 1.97779 18.3129 2.307 18.2894 2.63832L16.9421 13.6728H27.2477C27.5656 13.6724 27.8775 13.7485 28.1501 13.8929C28.4228 14.0372 28.6457 14.2445 28.795 14.4924C28.9443 14.7402 29.0143 15.0193 28.9976 15.2997C28.9808 15.5801 28.8779 15.8511 28.6999 16.0837L14.895 34.32C14.7345 34.5297 14.5182 34.7014 14.2649 34.82C14.0117 34.9386 13.7294 35.0004 13.4428 35Z" stroke="#F8FAFC" stroke-opacity="0.6" stroke-width="2"/>
</svg>
