<svg width="24" height="24" viewBox="0 0 24 24" fill="none" xmlns="http://www.w3.org/2000/svg">
<path fill-rule="evenodd" clip-rule="evenodd" d="M24 12C24 18.6276 18.6276 24 12 24C5.3724 24 0 18.6276 0 12C0 5.3724 5.3724 0 12 0C18.6276 0 24 5.3724 24 12ZM8.364 8.364C8.53275 8.19546 8.7615 8.10079 9 8.10079C9.2385 8.10079 9.46725 8.19546 9.636 8.364L12 10.728L14.364 8.364C14.5346 8.20502 14.7603 8.11848 14.9934 8.12259C15.2266 8.1267 15.4491 8.22116 15.6139 8.38605C15.7788 8.55095 15.8733 8.77341 15.8774 9.00657C15.8815 9.23974 15.795 9.46539 15.636 9.636L13.272 12L15.636 14.364C15.795 14.5346 15.8815 14.7603 15.8774 14.9934C15.8733 15.2266 15.7788 15.4491 15.6139 15.6139C15.4491 15.7788 15.2266 15.8733 14.9934 15.8774C14.7603 15.8815 14.5346 15.795 14.364 15.636L12 13.272L9.636 15.636C9.46539 15.795 9.23974 15.8815 9.00657 15.8774C8.77341 15.8733 8.55095 15.7788 8.38605 15.6139C8.22116 15.4491 8.1267 15.2266 8.12259 14.9934C8.11848 14.7603 8.20502 14.5346 8.364 14.364L10.728 12L8.364 9.636C8.19546 9.46725 8.10079 9.2385 8.10079 9C8.10079 8.7615 8.19546 8.53275 8.364 8.364Z" fill="#E6DEDD"/>
</svg>
