<svg width="24" height="24" viewBox="0 0 24 24" fill="none" xmlns="http://www.w3.org/2000/svg">
<path fill-rule="evenodd" clip-rule="evenodd" d="M24 12C24 18.6276 18.6276 24 12 24C5.3724 24 0 18.6276 0 12C0 5.3724 5.3724 0 12 0C18.6276 0 24 5.3724 24 12ZM16.836 8.364C17.0045 8.53275 17.0992 8.7615 17.0992 9C17.0992 9.2385 17.0045 9.46725 16.836 9.636L10.836 15.636C10.6672 15.8045 10.4385 15.8992 10.2 15.8992C9.9615 15.8992 9.73275 15.8045 9.564 15.636L7.164 13.236C7.07558 13.1536 7.00465 13.0542 6.95546 12.9438C6.90627 12.8334 6.87982 12.7143 6.87769 12.5934C6.87556 12.4726 6.89779 12.3525 6.94305 12.2405C6.98832 12.1284 7.05569 12.0266 7.14115 11.9412C7.22662 11.8557 7.32842 11.7883 7.44048 11.7431C7.55255 11.6978 7.67258 11.6756 7.79343 11.6777C7.91427 11.6798 8.03345 11.7063 8.14385 11.7555C8.25425 11.8047 8.35361 11.8756 8.436 11.964L10.2 13.728L12.882 11.046L15.564 8.364C15.7328 8.19546 15.9615 8.10079 16.2 8.10079C16.4385 8.10079 16.6673 8.19546 16.836 8.364Z" fill="#E6DEDD"/>
</svg>
