<svg width="34" height="34" viewBox="0 0 34 34" fill="none" xmlns="http://www.w3.org/2000/svg">
<path d="M10.0144 30.136C12.1645 31.2812 14.5639 31.8783 17 31.8742C25.2153 31.8742 31.875 25.2146 31.875 16.9996C31.875 8.78454 25.2153 2.12495 17 2.12495C8.78476 2.12495 2.12502 8.78454 2.12502 16.9996C2.12502 19.5283 2.75543 21.9068 3.8661 23.9893C4.12523 24.4744 4.18617 25.0411 4.0361 25.5702L2.28793 31.7142L8.43343 29.9674C8.96239 29.8169 9.5291 29.8774 10.0144 30.136ZM17 33.9992C14.215 34.0031 11.4721 33.32 9.01426 32.0102L2.25677 33.9326C1.95342 34.0188 1.63257 34.0224 1.32737 33.943C1.02217 33.8637 0.743684 33.7043 0.520701 33.4813C0.297719 33.2584 0.138325 32.9799 0.0589912 32.6747C-0.0203423 32.3695 -0.0167371 32.0487 0.069434 31.7453L1.99043 24.988C0.679718 22.5295 -0.00396998 19.7856 1.73411e-05 16.9996C1.73411e-05 7.61157 7.61176 0 17 0C26.3883 0 34 7.61157 34 16.9996C34 26.3876 26.3883 33.9992 17 33.9992ZM10.625 13.8122C10.625 13.5304 10.737 13.2601 10.9362 13.0609C11.1355 12.8616 11.4057 12.7497 11.6875 12.7497H22.3125C22.5943 12.7497 22.8645 12.8616 23.0638 13.0609C23.2631 13.2601 23.375 13.5304 23.375 13.8122C23.375 14.094 23.2631 14.3642 23.0638 14.5635C22.8645 14.7627 22.5943 14.8746 22.3125 14.8746H11.6875C11.4057 14.8746 11.1355 14.7627 10.9362 14.5635C10.737 14.3642 10.625 14.094 10.625 13.8122ZM10.625 20.187C10.625 19.9052 10.737 19.635 10.9362 19.4357C11.1355 19.2365 11.4057 19.1245 11.6875 19.1245H18.0625C18.3443 19.1245 18.6146 19.2365 18.8138 19.4357C19.0131 19.635 19.125 19.9052 19.125 20.187C19.125 20.4688 19.0131 20.739 18.8138 20.9383C18.6146 21.1376 18.3443 21.2495 18.0625 21.2495H11.6875C11.4057 21.2495 11.1355 21.1376 10.9362 20.9383C10.737 20.739 10.625 20.4688 10.625 20.187Z" fill="#F8FAFC" fill-opacity="0.6"/>
</svg>
