<svg width="18" height="26" viewBox="0 0 18 26" fill="none" xmlns="http://www.w3.org/2000/svg">
<path d="M0.409091 26L0 22.8222L4.66364 11.4833C5.07273 11.8204 5.51618 12.1035 5.994 12.3327C6.47182 12.5619 6.98291 12.7361 7.52727 12.8556L3.02727 23.7611L0.409091 26ZM17.5909 26L14.9727 23.7611L10.4727 12.8556C11.0182 12.7352 11.5298 12.5604 12.0076 12.3312C12.4855 12.102 12.9284 11.8194 13.3364 11.4833L18 22.8222L17.5909 26ZM9 11.5556C7.63636 11.5556 6.47727 11.1343 5.52273 10.2917C4.56818 9.44907 4.09091 8.42593 4.09091 7.22222C4.09091 6.28333 4.398 5.447 5.01218 4.71322C5.62636 3.97944 6.41018 3.46763 7.36364 3.17778V0H10.6364V3.17778C11.5909 3.46667 12.3753 3.97848 12.9895 4.71322C13.6036 5.44796 13.9102 6.2843 13.9091 7.22222C13.9091 8.42593 13.4318 9.44907 12.4773 10.2917C11.5227 11.1343 10.3636 11.5556 9 11.5556ZM9 8.66667C9.46364 8.66667 9.85255 8.528 10.1667 8.25067C10.4809 7.97333 10.6375 7.63052 10.6364 7.22222C10.6364 6.81296 10.4793 6.47015 10.1651 6.19378C9.85091 5.91741 9.46255 5.77874 9 5.77778C8.53636 5.77778 8.148 5.91644 7.83491 6.19378C7.52182 6.47111 7.36473 6.81393 7.36364 7.22222C7.36364 7.63148 7.52073 7.97478 7.83491 8.25211C8.14909 8.52944 8.53745 8.66763 9 8.66667Z" fill="#F8FAFC" fill-opacity="0.6"/>
</svg>
