<svg width="20" height="27" viewBox="0 0 20 27" fill="none" xmlns="http://www.w3.org/2000/svg">
<path d="M19.061 16.273C18.8915 16.2207 18.7134 16.2024 18.5368 16.2191C18.3603 16.2358 18.1888 16.2872 18.0321 16.3703C17.8755 16.4535 17.7368 16.5667 17.624 16.7036C17.5112 16.8405 17.4266 16.9983 17.375 17.168C16.551 19.826 15.059 22.587 14.382 22.738C13.875 22.738 13.146 22.308 12.424 21.298C14.098 17.704 14.975 13.192 14.975 10.18C14.975 1.767 12.851 0 11.067 0C7.31 0 7.267 9.912 7.267 10.012C7.267 11.178 7.309 12.26 7.388 13.268C6.82128 13.0587 6.22215 12.9507 5.618 12.949C1.758 12.949 0 16.758 0 20.296C0 23.63 1.871 27 6.046 27C8.018 27 9.68 25.709 11.021 23.779C12.209 25.014 13.453 25.475 14.381 25.475C17.304 25.475 19.239 20.242 19.937 17.989C20.0449 17.6452 20.0136 17.2728 19.8498 16.9519C19.686 16.631 19.4027 16.3872 19.061 16.273ZM6.048 24.264C3.017 24.264 2.688 21.489 2.688 20.295C2.688 20.107 2.722 15.684 5.62 15.684C6.764 15.684 7.642 16.569 7.642 16.569C7.707 16.639 7.779 16.7 7.854 16.753C8.229 18.657 8.758 20.179 9.37 21.385C8.366 23.123 7.203 24.264 6.048 24.264ZM10.901 17.926C10.342 15.996 9.955 13.405 9.955 10.012C9.955 6.886 10.621 3.944 11.174 2.939C11.598 3.583 12.289 5.589 12.289 10.18C12.289 12.616 11.75 15.446 10.901 17.926Z" fill="#F8FAFC" fill-opacity="0.6"/>
</svg>
