<svg width="20" height="24" viewBox="0 0 20 24" fill="none" xmlns="http://www.w3.org/2000/svg">
<path d="M19.061 14.4649C18.8915 14.4184 18.7134 14.4021 18.5368 14.4169C18.3603 14.4318 18.1888 14.4775 18.0321 14.5514C17.8755 14.6253 17.7368 14.726 17.624 14.8477C17.5112 14.9693 17.4266 15.1096 17.375 15.2604C16.551 17.6231 15.059 20.0773 14.382 20.2116C13.875 20.2116 13.146 19.8293 12.424 18.9316C14.098 15.7369 14.975 11.7262 14.975 9.04889C14.975 1.57067 12.851 0 11.067 0C7.31 0 7.267 8.81067 7.267 8.89955C7.267 9.936 7.309 10.8978 7.388 11.7938C6.82128 11.6077 6.22215 11.5117 5.618 11.5102C1.758 11.5102 0 14.896 0 18.0409C0 21.0044 1.871 24 6.046 24C8.018 24 9.68 22.8524 11.021 21.1369C12.209 22.2347 13.453 22.6444 14.381 22.6444C17.304 22.6444 19.239 17.9929 19.937 15.9902C20.0449 15.6847 20.0136 15.3536 19.8498 15.0684C19.686 14.7831 19.4027 14.5664 19.061 14.4649ZM6.048 21.568C3.017 21.568 2.688 19.1013 2.688 18.04C2.688 17.8729 2.722 13.9413 5.62 13.9413C6.764 13.9413 7.642 14.728 7.642 14.728C7.707 14.7902 7.779 14.8444 7.854 14.8916C8.229 16.584 8.758 17.9369 9.37 19.0089C8.366 20.5538 7.203 21.568 6.048 21.568ZM10.901 15.9342C10.342 14.2187 9.955 11.9156 9.955 8.89955C9.955 6.12089 10.621 3.50578 11.174 2.61244C11.598 3.18489 12.289 4.968 12.289 9.04889C12.289 11.2142 11.75 13.7298 10.901 15.9342Z" fill="#ff5252" fill-opacity="1"/>
</svg>
