<svg width="34" height="36" viewBox="0 0 34 36" fill="none" xmlns="http://www.w3.org/2000/svg">
<path d="M27.6666 11.1998V19.6999C27.6666 22.4051 26.5428 24.9995 24.5424 26.9124C22.542 28.8253 19.8289 29.9 16.9999 29.9C14.1709 29.9 11.4578 28.8253 9.45745 26.9124C7.45706 24.9995 6.33325 22.4051 6.33325 19.6999V11.1998C6.33331 9.1341 6.98926 7.11708 8.21431 5.41565C9.43936 3.71422 11.1758 2.40857 13.1938 1.67147C15.2118 0.934362 17.4163 0.800548 19.5155 1.28773C21.6148 1.77491 23.5099 2.86012 24.9501 4.39977" stroke="#F8FAFC" stroke-opacity="0.6" stroke-width="2" stroke-linecap="round"/>
<path d="M13.4444 8.64981C13.4444 8.64981 14.2853 7.7998 17 7.7998C19.7147 7.7998 20.5556 8.64981 20.5556 8.64981M13.4444 13.7498C13.4444 13.7498 14.2853 12.8998 17 12.8998C19.7147 12.8998 20.5556 13.7498 20.5556 13.7498M33 16.2999V19.6999C33.0006 22.5499 32.1687 25.3433 30.5982 27.7655C29.0277 30.1876 26.7809 32.1421 24.1111 33.4088M1 16.2999V19.6999C1 23.7577 2.68571 27.6494 5.68629 30.5187C8.68687 33.388 12.7565 35 17 35" stroke="#F8FAFC" stroke-opacity="0.6" stroke-width="2" stroke-linecap="round"/>
</svg>
