<svg width="24" height="24" viewBox="0 0 24 24" fill="none" xmlns="http://www.w3.org/2000/svg">
<path fill-rule="evenodd" clip-rule="evenodd" d="M14.661 2.62164C13.1358 2.1888 11.5281 2.13443 9.97709 2.46323C8.42613 2.79204 6.97875 3.4941 5.76038 4.50858C4.54201 5.52306 3.58941 6.81935 2.98513 8.2851C2.38085 9.75086 2.14313 11.3419 2.29257 12.9202C2.44201 14.4986 2.97409 16.0167 3.84271 17.343C4.71133 18.6694 5.89029 19.7638 7.2774 20.5316C8.66451 21.2994 10.2179 21.7174 11.803 21.7493C13.3882 21.7812 14.9571 21.426 16.374 20.7146C16.6395 20.5897 16.9432 20.5734 17.2205 20.6693C17.4978 20.7651 17.7267 20.9654 17.8584 21.2276C17.9901 21.4898 18.0141 21.7931 17.9254 22.0727C17.8367 22.3524 17.6422 22.5863 17.3835 22.7246C15.0494 23.8963 12.3967 24.2745 9.82819 23.8018C7.25964 23.3291 4.91541 22.0314 3.15131 20.1056C1.3872 18.1797 0.299549 15.7309 0.0534205 13.1309C-0.192708 10.5308 0.41613 7.92145 1.78753 5.6988C3.15892 3.47615 5.218 1.76158 7.65224 0.815331C10.0865 -0.13092 12.763 -0.257192 15.2755 0.455682C17.788 1.16856 19.9993 2.68165 21.5739 4.76532C23.1485 6.84898 24.0002 9.38945 24 12.0011V13.8761C24.0005 14.7696 23.7109 15.6392 23.1748 16.3539C22.6386 17.0686 21.8848 17.59 21.0269 17.8395C20.1689 18.089 19.2531 18.0532 18.4173 17.7374C17.5814 17.4217 16.8707 16.8431 16.392 16.0886C15.44 17.1115 14.1608 17.77 12.7751 17.9505C11.3894 18.131 9.98418 17.8222 8.80186 17.0774C7.61954 16.3326 6.73427 15.1984 6.2988 13.8706C5.86333 12.5428 5.90496 11.1047 6.41652 9.8043C6.92808 8.50392 7.87748 7.42288 9.10092 6.74769C10.3244 6.0725 11.7451 5.84552 13.118 6.10589C14.4909 6.36627 15.7299 7.09768 16.6211 8.17392C17.5124 9.25017 18.0001 10.6038 18 12.0011V13.8761C18 14.3734 18.1975 14.8503 18.5492 15.202C18.9008 15.5536 19.3777 15.7511 19.875 15.7511C20.3723 15.7511 20.8492 15.5536 21.2008 15.202C21.5525 14.8503 21.75 14.3734 21.75 13.8761V12.0011C21.7499 9.8793 21.0577 7.81541 19.7783 6.12267C18.4989 4.42993 16.7023 3.20074 14.661 2.62164ZM15.75 12.0011C15.75 11.0066 15.3549 10.0527 14.6517 9.34949C13.9484 8.64623 12.9946 8.25114 12 8.25114C11.0054 8.25114 10.0516 8.64623 9.34836 9.34949C8.6451 10.0527 8.25001 11.0066 8.25001 12.0011C8.25001 12.9957 8.6451 13.9495 9.34836 14.6528C10.0516 15.356 11.0054 15.7511 12 15.7511C12.9946 15.7511 13.9484 15.356 14.6517 14.6528C15.3549 13.9495 15.75 12.9957 15.75 12.0011Z" fill="#F8FAFC" fill-opacity="0.6"/>
</svg>
