<svg width="20" height="28" viewBox="0 0 20 28" fill="none" xmlns="http://www.w3.org/2000/svg">
<path d="M17.5895 9.6C18.5881 9 19.2871 8.1 19.6866 7C20.086 5.9 20.086 4.8 19.7865 3.7C19.4869 2.6 18.7878 1.7 17.8891 1C16.9903 0.3 15.792 0 14.6935 0H5.50622C4.30788 0 3.2094 0.4 2.31065 1C1.21217 1.7 0.612995 2.7 0.213548 3.7C-0.0860372 4.8 -0.0860368 6 0.31341 7C0.712857 8.1 1.41189 9 2.41051 9.6C1.71147 10.1 1.01244 10.7 0.612995 11.5C0.213548 12.3 0.0138248 13.1 0.0138248 14C0.0138248 14.9 0.213548 15.7 0.612995 16.5C1.01244 17.3 1.61161 17.9 2.41051 18.4C1.41189 19 0.712857 19.9 0.31341 21C-0.0860368 22.1 -0.0860372 23.2 0.213548 24.3C0.513133 25.4 1.21217 26.3 2.21078 27C3.10954 27.7 4.30788 28 5.40636 28C6.80442 28 8.20249 27.4 9.30097 26.5C10.2996 25.5 10.8988 24.2 10.8988 22.8V18C11.8974 18.9 13.1956 19.4 14.4938 19.4H14.5936C15.792 19.4 16.8905 19 17.7892 18.4C18.688 17.7 19.387 16.8 19.6866 15.7C19.9862 14.6 19.9862 13.5 19.5867 12.4C19.2871 11.1 18.4883 10.2 17.5895 9.6ZM10.8988 1.7H14.5936C15.093 1.7 15.5923 1.7 15.9917 1.9C16.491 2.1 16.8905 2.3 17.19 2.7C17.5895 3 17.7892 3.4 17.9889 3.9C18.1887 4.4 18.2885 4.8 18.2885 5.3C18.2885 5.8 18.1887 6.3 17.9889 6.7C17.7892 7.1 17.4896 7.5 17.19 7.9C16.7906 8.2 16.3912 8.5 15.9917 8.7C15.4924 8.9 14.9931 8.9 14.5936 8.9H10.8988V1.7ZM5.40636 1.7H9.10124V8.7H5.40636C4.5076 8.7 3.60885 8.3 3.00968 7.6C2.31065 7 2.01106 6.1 2.01106 5.2C2.01106 4.3 2.41051 3.4 3.00968 2.8C3.60885 2.2 4.5076 1.8 5.40636 1.7ZM1.81134 14C1.81134 13.1 2.21078 12.2 2.90982 11.5C3.60885 10.8 4.5076 10.5 5.50622 10.5H9.20111V17.5H5.50622C4.5076 17.5 3.60885 17.1 2.90982 16.5C2.21078 15.8 1.81134 14.9 1.81134 14ZM9.10124 22.7C9.10124 23.7 8.7018 24.6 8.00276 25.2C7.30373 25.9 6.40498 26.2 5.40636 26.2C4.90705 26.2 4.40774 26.2 4.0083 26C3.50899 25.8 3.10954 25.6 2.80995 25.3C2.41051 25 2.21078 24.6 2.01106 24.1C1.81134 23.7 1.71147 23.2 1.71147 22.7C1.71147 22.2 1.81134 21.7 2.01106 21.3C2.21078 20.9 2.51037 20.5 2.80995 20.1C3.2094 19.8 3.60885 19.5 4.0083 19.3C4.5076 19.1 5.00691 19.1 5.40636 19.1H9.10124V22.7ZM14.5936 17.5H14.4938C13.595 17.5 12.6963 17.1 12.0971 16.4C11.4979 15.7 11.0985 14.9 11.0985 14C11.0985 13.1 11.4979 12.2 12.0971 11.6C12.6963 10.9 13.595 10.6 14.4938 10.5H14.5936C15.093 10.5 15.5923 10.5 15.9917 10.7C16.491 10.9 16.8905 11.1 17.19 11.5C17.5895 11.8 17.7892 12.2 17.9889 12.7C18.1887 13.1 18.2885 13.6 18.2885 14.1C18.2885 14.6 18.1887 15.1 17.9889 15.5C17.7892 15.9 17.4896 16.3 17.19 16.7C16.7906 17 16.3912 17.3 15.9917 17.5H14.5936Z" fill="#E6DEDD"/>
</svg>
