<svg width="20" height="24" viewBox="0 0 20 24" fill="none" xmlns="http://www.w3.org/2000/svg">
<path fill-rule="evenodd" clip-rule="evenodd" d="M5.91481 4.5251L2.08748 9.49655C0.481308 11.5833 -0.322405 12.6261 0.120074 13.4456L0.142573 13.4864C0.611301 14.294 1.99874 14.294 4.77236 14.294C6.31354 14.294 7.08476 14.294 7.56723 14.7296L7.59223 14.7536L12.432 9.26976L12.407 9.24576C11.9333 8.80058 11.9333 8.0902 11.9333 6.66824V6.29625C11.9333 2.35436 11.9333 0.384012 10.7796 0.0444217C9.62589 -0.295169 8.38845 1.31159 5.91481 4.5251Z" fill="#F8FAFC"/>
<path opacity="0.5" d="M8.06598 17.3314V17.7034C8.06598 21.6441 8.06598 23.6156 9.21968 23.9552C10.3734 24.2948 11.6108 22.688 14.0857 19.4745L17.913 14.5031C19.518 12.4163 20.3217 11.3736 19.8792 10.554L19.8567 10.5132C19.388 9.70561 18.0005 9.70561 15.2269 9.70561C13.6857 9.70561 12.9145 9.70561 12.432 9.27002L7.59225 14.7539C8.06598 15.1991 8.06598 15.9094 8.06598 17.3314Z" fill="#F8FAFC"/>
</svg>
