<svg width="20" height="20" viewBox="0 0 24 24" fill="none" xmlns="http://www.w3.org/2000/svg">
<path d="M23.5996 9.49113L23.566 9.40142L20.3024 0.562041C20.2364 0.38765 20.1188 0.239507 19.9665 0.138961C19.8142 0.0384145 19.6351 -0.0093426 19.4549 0.00257113C19.2746 0.0107109 19.1014 0.0780841 18.9603 0.19498C18.8193 0.311875 18.7176 0.472255 18.6699 0.653002L16.4662 7.6632H7.53827L5.3309 0.654248C5.28383 0.473428 5.18269 0.312782 5.04205 0.195447C4.90141 0.0781109 4.72853 0.0101408 4.54829 0.00132518C4.36816 -0.00884791 4.18948 0.0397486 4.0373 0.140303C3.88512 0.240857 3.76706 0.388328 3.69968 0.562041L0.43243 9.41388L0.398822 9.5011C-0.0696479 10.776 -0.127036 12.1743 0.235275 13.486C0.597587 14.7977 1.36004 15.952 2.40814 16.7755L2.42014 16.7842L2.44895 16.8079L7.42664 20.6756L9.88728 22.6106L11.3841 23.7869C11.5594 23.9252 11.7736 24 11.9938 24C12.214 24 12.4282 23.9252 12.6036 23.7869L14.1004 22.6106L16.561 20.6756L21.5687 16.7842L21.5807 16.7742C22.633 15.9522 23.3992 14.797 23.7634 13.4831C24.1276 12.1693 24.0701 10.7681 23.5996 9.49113Z" fill="#222222"/>
</svg>
