<svg width="25" height="25" viewBox="0 0 24 24" fill="none" xmlns="http://www.w3.org/2000/svg">
<path d="M20.448 20.452H16.8947V14.8827C16.8947 13.5547 16.868 11.8453 15.0413 11.8453C13.1893 11.8453 12.9067 13.2907 12.9067 14.7853V20.452H9.352V9H12.7653V10.56H12.812C13.2893 9.66133 14.4493 8.71067 16.1827 8.71067C19.7827 8.71067 20.4493 11.0813 20.4493 14.1667L20.448 20.452ZM5.33867 7.43333C5.06741 7.43368 4.79875 7.38049 4.54808 7.27681C4.29742 7.17312 4.06969 7.02099 3.87794 6.82911C3.6862 6.63724 3.5342 6.40941 3.43068 6.15868C3.32716 5.90795 3.27414 5.63926 3.27467 5.368C3.27493 4.95978 3.39624 4.5608 3.62325 4.22153C3.85027 3.88225 4.17279 3.61791 4.55004 3.46194C4.92729 3.30596 5.34232 3.26536 5.74264 3.34525C6.14297 3.42515 6.51061 3.62197 6.79908 3.91081C7.08755 4.19965 7.28389 4.56755 7.36327 4.96798C7.44265 5.3684 7.40151 5.78338 7.24504 6.16042C7.08858 6.53747 6.82382 6.85965 6.48426 7.08623C6.14469 7.3128 5.74555 7.4336 5.33733 7.43333M7.11867 20.452H3.556V9H7.12L7.11867 20.452ZM22.2267 0H1.77333C0.792 0 0 0.773333 0 1.72933V22.2707C0 23.2267 0.792 24 1.77067 24H22.2227C23.2 24 24 23.2267 24 22.2707V1.72933C24 0.774667 23.2 0 22.2213 0H22.2267Z" fill="#ff5252"/>
</svg>
