<svg width="34" height="34" viewBox="0 0 34 34" fill="none" xmlns="http://www.w3.org/2000/svg">
<path d="M9.27273 17C9.27273 17.4379 9.12436 17.8052 8.82763 18.1019C8.53091 18.3986 8.16412 18.5465 7.72727 18.5455H1.54545C1.10758 18.5455 0.740788 18.3971 0.445091 18.1004C0.149394 17.8036 0.0010303 17.4368 0 17C0 16.5621 0.148364 16.1953 0.445091 15.8996C0.741818 15.6039 1.10861 15.4556 1.54545 15.4545H7.72727C8.16515 15.4545 8.53245 15.6029 8.82918 15.8996C9.12591 16.1964 9.27376 16.5631 9.27273 17ZM11.5136 11.5136C11.2303 11.797 10.8697 11.9386 10.4318 11.9386C9.99394 11.9386 9.63333 11.797 9.35 11.5136L8.26818 10.4318C7.98485 10.1485 7.84318 9.78788 7.84318 9.35C7.84318 8.91212 7.98485 8.55151 8.26818 8.26818C8.55151 7.98485 8.91212 7.84318 9.35 7.84318C9.78788 7.84318 10.1485 7.98485 10.4318 8.26818L11.5136 9.35C11.797 9.63333 11.9386 9.99394 11.9386 10.4318C11.9386 10.8697 11.797 11.2303 11.5136 11.5136ZM15.4545 7.72727V1.54545C15.4545 1.10758 15.6029 0.740788 15.8996 0.445091C16.1964 0.149394 16.5631 0.0010303 17 0C17.4379 0 17.8052 0.148364 18.1019 0.445091C18.3986 0.741818 18.5465 1.10861 18.5455 1.54545V7.72727C18.5455 8.16515 18.3971 8.53245 18.1004 8.82918C17.8036 9.12591 17.4368 9.27376 17 9.27273C16.5621 9.27273 16.1953 9.12436 15.8996 8.82763C15.6039 8.53091 15.4556 8.16412 15.4545 7.72727ZM22.4864 11.5136C22.203 11.2303 22.0614 10.8697 22.0614 10.4318C22.0614 9.99394 22.203 9.63333 22.4864 9.35L23.5682 8.26818C23.8515 7.98485 24.2121 7.84318 24.65 7.84318C25.0879 7.84318 25.4485 7.98485 25.7318 8.26818C26.0151 8.55151 26.1568 8.91212 26.1568 9.35C26.1568 9.78788 26.0151 10.1485 25.7318 10.4318L24.65 11.5136C24.3667 11.797 24.0061 11.9386 23.5682 11.9386C23.1303 11.9386 22.7697 11.797 22.4864 11.5136ZM24.7273 17C24.7273 16.5621 24.8756 16.1953 25.1724 15.8996C25.4691 15.6039 25.8359 15.4556 26.2727 15.4545H32.4545C32.8924 15.4545 33.2597 15.6029 33.5564 15.8996C33.8532 16.1964 34.001 16.5631 34 17C34 17.4379 33.8516 17.8052 33.5549 18.1019C33.2582 18.3986 32.8914 18.5465 32.4545 18.5455H26.2727C25.8348 18.5455 25.4681 18.3971 25.1724 18.1004C24.8767 17.8036 24.7283 17.4368 24.7273 17ZM17 21.6364C15.7121 21.6364 14.6174 21.1856 13.7159 20.2841C12.8144 19.3826 12.3636 18.2879 12.3636 17C12.3636 15.7121 12.8144 14.6174 13.7159 13.7159C14.6174 12.8144 15.7121 12.3636 17 12.3636C18.2879 12.3636 19.3826 12.8144 20.2841 13.7159C21.1856 14.6174 21.6364 15.7121 21.6364 17C21.6364 18.2879 21.1856 19.3826 20.2841 20.2841C19.3826 21.1856 18.2879 21.6364 17 21.6364ZM22.4864 22.4864C22.7697 22.203 23.1303 22.0614 23.5682 22.0614C24.0061 22.0614 24.3667 22.203 24.65 22.4864L25.7318 23.5682C26.0151 23.8515 26.1568 24.2121 26.1568 24.65C26.1568 25.0879 26.0151 25.4485 25.7318 25.7318C25.4485 26.0151 25.0879 26.1568 24.65 26.1568C24.2121 26.1568 23.8515 26.0151 23.5682 25.7318L22.4864 24.65C22.203 24.3667 22.0614 24.0061 22.0614 23.5682C22.0614 23.1303 22.203 22.7697 22.4864 22.4864ZM11.5136 22.4864C11.797 22.7697 11.9386 23.1303 11.9386 23.5682C11.9386 24.0061 11.797 24.3667 11.5136 24.65L10.4318 25.7318C10.1485 26.0151 9.78788 26.1568 9.35 26.1568C8.91212 26.1568 8.55151 26.0151 8.26818 25.7318C7.98485 25.4485 7.84318 25.0879 7.84318 24.65C7.84318 24.2121 7.98485 23.8515 8.26818 23.5682L9.35 22.4864C9.63333 22.203 9.99394 22.0614 10.4318 22.0614C10.8697 22.0614 11.2303 22.203 11.5136 22.4864ZM17 24.7273C17.4379 24.7273 17.8052 24.8756 18.1019 25.1724C18.3986 25.4691 18.5465 25.8359 18.5455 26.2727V32.4545C18.5455 32.8924 18.3971 33.2597 18.1004 33.5564C17.8036 33.8532 17.4368 34.001 17 34C16.5621 34 16.1953 33.8516 15.8996 33.5549C15.6039 33.2582 15.4556 32.8914 15.4545 32.4545V26.2727C15.4545 25.8348 15.6029 25.4681 15.8996 25.1724C16.1964 24.8767 16.5631 24.7283 17 24.7273Z" fill="#F8FAFC" fill-opacity="0.6"/>
</svg>
