<svg width="19" height="25" viewBox="0 0 19 25" fill="none" xmlns="http://www.w3.org/2000/svg">
<path d="M15.1321 0.0649414H2.92204C2.11228 0.11046 1.35441 0.453134 0.813073 1.01853C0.271732 1.58392 -0.00935876 2.32636 0.0308598 3.08457V21.0453C-0.00935876 21.8035 0.271732 22.546 0.813073 23.1114C1.35441 23.6767 2.11228 24.0194 2.92204 24.0649H15.1321C15.9419 24.0194 16.6997 23.6767 17.2411 23.1114C17.7824 22.546 18.0635 21.8035 18.0233 21.0453V3.08457C18.0635 2.32636 17.7824 1.58392 17.2411 1.01853C16.6997 0.453134 15.9419 0.11046 15.1321 0.0649414ZM16.7326 21.0453C16.7723 21.4832 16.6269 21.9183 16.3277 22.2571C16.0285 22.5958 15.5992 22.8112 15.1321 22.8571H2.92204C2.45494 22.8112 2.02568 22.5958 1.72644 22.2571C1.4272 21.9183 1.28183 21.4832 1.32156 21.0453V3.08457C1.28183 2.64663 1.4272 2.21158 1.72644 1.87283C2.02568 1.53408 2.45494 1.31865 2.92204 1.27279H4.89682V1.8888C4.89682 2.20914 5.0328 2.51636 5.27485 2.74288C5.51691 2.96939 5.8452 3.09665 6.18752 3.09665H11.8666C12.2089 3.09665 12.5372 2.96939 12.7793 2.74288C13.0213 2.51636 13.1573 2.20914 13.1573 1.8888V1.27279H15.1321C15.5992 1.31865 16.0285 1.53408 16.3277 1.87283C16.6269 2.21158 16.7723 2.64663 16.7326 3.08457V21.0453Z" fill="#F8FAFC" fill-opacity="0.6" />
<path d="M6.44568 20.4403H11.6085C11.7797 20.4403 11.9438 20.3766 12.0648 20.2634C12.1859 20.1501 12.2538 19.9965 12.2538 19.8363C12.2538 19.6762 12.1859 19.5226 12.0648 19.4093C11.9438 19.296 11.7797 19.2324 11.6085 19.2324H6.44568C6.27452 19.2324 6.11037 19.296 5.98934 19.4093C5.86832 19.5226 5.80032 19.6762 5.80032 19.8363C5.80032 19.9965 5.86832 20.1501 5.98934 20.2634C6.11037 20.3766 6.27452 20.4403 6.44568 20.4403Z" fill="#F8FAFC" fill-opacity="0.6" />
</svg>
