<svg width="22" height="30" viewBox="0 0 22 30" fill="none" xmlns="http://www.w3.org/2000/svg">
<path fill-rule="evenodd" clip-rule="evenodd" d="M22 12.877L21.9902 13.222L22 13.5869L21.9902 13.9319L22 14.2968L21.9902 14.6447L22 15.0067L21.736 25.0918C21.7058 26.2486 21.1938 27.3564 20.2956 28.2088C19.3973 29.0612 18.174 29.5999 16.8536 29.7247C12.9626 30.0918 9.03742 30.0918 5.14637 29.7247C3.82597 29.5999 2.60267 29.0612 1.70441 28.2088C0.806152 27.3564 0.294218 26.2486 0.264 25.0918L0 15.0067L0.00977785 14.6419L0 14.2968L0.00977785 13.9334L0 13.5869L0.00977785 13.2234L0 12.877L0.267259 4.21891C0.270519 4.09822 0.280297 3.97896 0.296593 3.86111L0.301481 3.81142L0.306371 3.77024C0.374539 3.16175 0.611053 2.57673 0.995639 2.06534C1.38023 1.55395 1.90141 1.13145 2.51452 0.834041C3.12611 0.510844 3.81461 0.314128 4.52711 0.259012C8.83327 -0.0863374 13.1667 -0.0863374 17.4729 0.259012C18.1841 0.31412 18.8715 0.510334 19.4822 0.832622C20.0946 1.12919 20.6154 1.55051 21.0002 2.06059C21.385 2.57067 21.6224 3.15434 21.692 3.76172L21.705 3.86679C21.7213 3.98322 21.7295 4.10106 21.7327 4.21891L22 12.877ZM19.2687 4.10248L19.5246 13.8538L19.3176 20.5696C19.2952 21.2991 18.9665 21.9962 18.3938 22.5287C17.821 23.0612 17.044 23.3922 16.2099 23.459C12.744 23.737 9.25603 23.737 5.79007 23.459C4.95598 23.3922 4.17898 23.0612 3.60623 22.5287C3.03349 21.9962 2.70478 21.2991 2.68237 20.5696L2.47541 13.8538L2.73126 4.1039C2.73126 4.0826 2.73126 4.06131 2.73452 4.04143C2.8323 3.46924 3.21037 2.97656 3.74978 2.6784C3.95891 2.58325 4.18663 2.52306 4.42118 2.50092C8.79348 2.08917 13.2049 2.08917 17.5788 2.50092C17.82 2.52363 18.0465 2.58469 18.2502 2.67698C18.788 2.97656 19.1693 3.47066 19.2671 4.04143L19.2687 4.10248ZM11 28.7791C11.6483 28.7791 12.2701 28.5547 12.7285 28.1553C13.1869 27.7559 13.4444 27.2142 13.4444 26.6493C13.4444 26.0845 13.1869 25.5428 12.7285 25.1434C12.2701 24.744 11.6483 24.5196 11 24.5196C10.3517 24.5196 9.72994 24.744 9.27152 25.1434C8.81309 25.5428 8.55556 26.0845 8.55556 26.6493C8.55556 27.2142 8.81309 27.7559 9.27152 28.1553C9.72994 28.5547 10.3517 28.7791 11 28.7791Z" fill="#F8FAFC" fill-opacity="0.6"/>
</svg>
