<svg width="22" height="28" viewBox="0 0 26 34" fill="none" xmlns="http://www.w3.org/2000/svg">
<path fill-rule="evenodd" clip-rule="evenodd" d="M12.9168 0H13.0832C15.8139 0 17.9771 0 19.6694 0.241953C21.4106 0.491814 22.8206 1.01684 23.9334 2.19972C25.0447 3.38419 25.5379 4.88493 25.7727 6.73833C26 8.54112 26 10.842 26 13.7487V20.2513C26 23.158 26 25.4605 25.7727 27.2617C25.5379 29.1151 25.0447 30.6158 23.9334 31.8003C22.8206 32.9832 21.4106 33.5082 19.6694 33.758C17.9757 34 15.8139 34 13.0832 34H12.9168C10.1861 34 8.02286 34 6.33063 33.758C4.58937 33.5082 3.17943 32.9832 2.06663 31.8003C0.955314 30.6158 0.462057 29.1151 0.227314 27.2617C1.77111e-07 25.4589 0 23.158 0 20.2513V13.7487C0 10.842 1.77111e-07 8.53954 0.227314 6.73833C0.462057 4.88493 0.955314 3.38419 2.06663 2.19972C3.17943 1.01684 4.58937 0.491814 6.33063 0.241953C8.02434 0 10.1861 0 12.9168 0ZM6.62629 2.59349C5.13166 2.80698 4.26994 3.20865 3.64 3.87758C3.01303 4.54651 2.63566 5.46372 2.43509 7.05461C2.23006 8.68028 2.22709 10.8215 2.22709 13.8372V20.1628C2.22709 23.1785 2.23006 25.3213 2.43509 26.947C2.63566 28.5363 3.01303 29.4535 3.64149 30.1224C4.26994 30.7913 5.13166 31.193 6.62629 31.4065C8.1536 31.6247 10.1653 31.6279 12.9985 31.6279C15.8318 31.6279 17.8449 31.6247 19.3722 31.4065C20.8654 31.193 21.7271 30.7913 22.3555 30.1224C22.984 29.4535 23.3614 28.5363 23.5619 26.9454C23.767 25.3213 23.7699 23.1785 23.7699 20.1628V13.8372C23.7699 10.8215 23.767 8.68028 23.5619 7.05302C23.3614 5.46372 22.984 4.54651 22.3555 3.87758C21.7271 3.20865 20.8654 2.80698 19.3707 2.59349C17.8434 2.37526 15.8318 2.37209 12.9985 2.37209C10.1653 2.37209 8.15509 2.37526 6.62629 2.59349ZM7.42857 5.93023C7.42857 5.61567 7.54597 5.314 7.75494 5.09157C7.96391 4.86914 8.24733 4.74419 8.54286 4.74419H17.4571C17.7527 4.74419 18.0361 4.86914 18.2451 5.09157C18.454 5.314 18.5714 5.61567 18.5714 5.93023C18.5714 6.24479 18.454 6.54647 18.2451 6.76889C18.0361 6.99132 17.7527 7.11628 17.4571 7.11628H8.54286C8.24733 7.11628 7.96391 6.99132 7.75494 6.76889C7.54597 6.54647 7.42857 6.24479 7.42857 5.93023ZM13 22.9302C12.5075 22.9302 12.0351 23.1385 11.6868 23.5092C11.3385 23.8799 11.1429 24.3827 11.1429 24.907C11.1429 25.4312 11.3385 25.934 11.6868 26.3047C12.0351 26.6755 12.5075 26.8837 13 26.8837C13.4925 26.8837 13.9649 26.6755 14.3132 26.3047C14.6615 25.934 14.8571 25.4312 14.8571 24.907C14.8571 24.3827 14.6615 23.8799 14.3132 23.5092C13.9649 23.1385 13.4925 22.9302 13 22.9302ZM8.91429 24.907C8.91429 23.7536 9.34474 22.6474 10.111 21.8319C10.8772 21.0163 11.9164 20.5581 13 20.5581C14.0836 20.5581 15.1228 21.0163 15.889 21.8319C16.6553 22.6474 17.0857 23.7536 17.0857 24.907C17.0857 26.0604 16.6553 27.1665 15.889 27.9821C15.1228 28.7976 14.0836 29.2558 13 29.2558C11.9164 29.2558 10.8772 28.7976 10.111 27.9821C9.34474 27.1665 8.91429 26.0604 8.91429 24.907Z" fill="#F8FAFC" fill-opacity="0.6"/>
</svg>
