<svg width="30" height="30" viewBox="0 0 30 30" fill="none" xmlns="http://www.w3.org/2000/svg">
<path d="M23.3999 12.2H16.3999" stroke="#F8FAFC" stroke-opacity="0.6" stroke-width="1.5" stroke-linecap="round"/>
<path d="M12.2 2.3999H21.3C21.9496 2.3999 22.2758 2.3999 22.5488 2.4363C23.4651 2.55715 24.3159 2.97686 24.9695 3.6304C25.623 4.28394 26.0427 5.1348 26.1636 6.0511C26.2 6.3241 26.2 6.6503 26.2 7.2999" stroke="#F8FAFC" stroke-opacity="0.6" stroke-width="1.5"/>
<path d="M1 7.93C1 6.6938 1 6.0764 1.098 5.5612C1.30691 4.45498 1.84439 3.4374 2.64031 2.64123C3.43623 1.84506 4.45364 1.30726 5.5598 1.098C6.0764 1 6.6952 1 7.93 1C8.4704 1 8.742 1 9.0024 1.0238C10.1239 1.12912 11.1875 1.57019 12.0544 2.2894C12.256 2.456 12.4464 2.6464 12.83 3.03L13.6 3.8C14.7424 4.9424 15.3136 5.5136 15.9968 5.893C16.3723 6.10229 16.7707 6.26765 17.184 6.3858C17.9372 6.6 18.745 6.6 20.3592 6.6H20.8828C24.5676 6.6 26.4114 6.6 27.6084 7.678C27.719 7.776 27.824 7.881 27.922 7.9916C29 9.1886 29 11.0324 29 14.7172V17.8C29 23.0794 29 25.7198 27.3592 27.3592C25.7198 29 23.0794 29 17.8 29H12.2C6.9206 29 4.2802 29 2.6408 27.3592C1 25.7198 1 23.0794 1 17.8V7.93Z" stroke="#F8FAFC" stroke-opacity="0.6" stroke-width="1.5"/>
</svg>
