<svg width="24" height="23" viewBox="0 0 24 23" fill="none" xmlns="http://www.w3.org/2000/svg">
<path fill-rule="evenodd" clip-rule="evenodd" d="M9.9312 0.00582292C10.0308 1.33403e-07 10.1364 0 10.2732 0H13.728C13.8636 0 13.9692 1.33403e-07 14.07 0.00582292C14.6935 0.0426051 15.2934 0.250359 15.8 0.604936C16.3067 0.959513 16.6992 1.44635 16.932 2.00886C16.9692 2.09853 17.004 2.19519 17.046 2.32096L17.0496 2.33261C17.1504 2.59347 17.3796 2.89043 17.7012 3.128C17.7372 3.1544 17.7732 3.17924 17.8092 3.20253C20.3928 3.20603 21.7428 3.25144 22.6716 3.98628C22.8636 4.13767 23.0372 4.30614 23.1924 4.4917C24 5.45478 24 6.88137 24 9.73453C24 10.4589 24 10.8199 23.82 11.1029C23.7846 11.1581 23.7444 11.2103 23.7 11.2589C23.472 11.5082 23.1156 11.6118 22.4016 11.8203L16.8 13.4506V12.519C16.8 11.9013 16.5471 11.3088 16.0971 10.8721C15.647 10.4353 15.0365 10.1899 14.4 10.1899H9.6C8.96348 10.1899 8.35303 10.4353 7.90294 10.8721C7.45286 11.3088 7.2 11.9013 7.2 12.519V13.4506L1.5984 11.8203C0.8844 11.6118 0.5268 11.5082 0.3 11.2589C0.255581 11.2103 0.215441 11.1581 0.18 11.1029C1.07288e-07 10.8199 0 10.4589 0 9.73453C0 6.88137 1.43051e-07 5.45478 0.8076 4.4917C0.9636 4.30537 1.1372 4.13689 1.3284 3.98628C2.2584 3.25261 3.6072 3.20603 6.192 3.20253C6.228 3.17924 6.264 3.1544 6.3 3.128C6.6204 2.89043 6.8508 2.5923 6.9504 2.33261C6.996 2.19985 7.0296 2.0997 7.068 2.0077C7.30098 1.4454 7.69359 0.95881 8.20021 0.604448C8.70682 0.250087 9.30665 0.042506 9.93 0.00582292M15.3816 2.99058C15.4096 3.06278 15.4416 3.13343 15.4776 3.20253H8.5212C8.5556 3.13266 8.5876 3.06201 8.6172 2.99058V2.98709L8.6232 2.97544L8.6292 2.96147L8.6352 2.94749L8.6388 2.93585L8.6412 2.93003L8.646 2.91605L8.6508 2.90208L8.6532 2.89509L8.6568 2.88577L8.6592 2.87762L8.6616 2.87063C8.7084 2.73554 8.7228 2.69246 8.7372 2.65985C8.84298 2.40414 9.02137 2.18281 9.25164 2.0216C9.48191 1.8604 9.75459 1.76592 10.038 1.74916C10.0764 1.74684 10.1244 1.74684 10.296 1.74684H13.7016C13.8732 1.74684 13.9212 1.74684 13.9596 1.74916C14.538 1.7841 15.0444 2.13813 15.2616 2.65985C15.2736 2.69246 15.2892 2.73322 15.336 2.87063L15.3384 2.87762L15.3408 2.88577L15.3444 2.89509L15.3468 2.90208L15.3516 2.91605L15.3564 2.93003L15.3588 2.93585L15.3636 2.94749L15.3684 2.96147L15.3744 2.97544L15.3792 2.98709L15.3816 2.99058ZM14.4 11.9367H9.6C9.44087 11.9367 9.28826 11.9981 9.17574 12.1073C9.06321 12.2165 9 12.3646 9 12.519V15.0368C9.00003 15.153 9.03593 15.2667 9.10309 15.363C9.17024 15.4593 9.26558 15.5339 9.3768 15.5771L10.2168 15.9032C11.3615 16.3477 12.6385 16.3477 13.7832 15.9032L14.6232 15.5771C14.7344 15.5339 14.8298 15.4593 14.8969 15.363C14.9641 15.2667 15 15.153 15 15.0368V12.519C15 12.3646 14.9368 12.2165 14.8243 12.1073C14.7117 11.9981 14.5591 11.9367 14.4 11.9367ZM7.212 15.279L1.2072 13.5298C1.2432 17.1563 1.4616 20.4974 2.7816 21.6351C4.3632 23 6.9096 23 12 23C17.0904 23 19.6368 23 21.2184 21.6351C22.5384 20.4974 22.7568 17.1563 22.7928 13.5298L16.7868 15.2778C16.7416 15.6999 16.5784 16.102 16.3149 16.4406C16.0514 16.7793 15.6976 17.0416 15.2916 17.1993L14.4516 17.5254C12.8778 18.1365 11.1222 18.1365 9.5484 17.5254L8.7084 17.1993C8.30244 17.0416 7.9486 16.7793 7.68509 16.4406C7.42157 16.102 7.2584 15.6999 7.2132 15.2778" fill="#F8FAFC" fill-opacity="0.6"/>
</svg>
