<svg width="24" height="20" viewBox="0 0 29 24" fill="none" xmlns="http://www.w3.org/2000/svg">
<path d="M22.429 13.6307C21.0977 13.6307 19.8472 12.9748 18.7144 11.9011L18.9881 10.3862L18.9971 10.3259C19.2472 8.71689 20.0212 6.0119 22.4281 6.0119C23.2942 6.01218 24.1248 6.41395 24.7372 7.12889C25.3497 7.84383 25.6939 8.81341 25.6941 9.82448C25.6927 10.8346 25.348 11.8029 24.7356 12.5167C24.1233 13.2304 23.2934 13.6315 22.4281 13.6318L22.429 13.6307ZM22.429 2.15383C19.3614 2.15383 16.9772 4.47904 16.0102 8.30855C14.5376 5.72416 13.4139 2.61718 12.7632 0H9.45914V10.0329C9.45747 10.9851 9.13269 11.8977 8.5559 12.571C7.97912 13.2443 7.19731 13.6235 6.38161 13.6254C5.56614 13.6226 4.78474 13.2432 4.20811 12.5701C3.63148 11.897 3.30647 10.9848 3.30408 10.0329V0H0V10.0329C0 14.1427 2.86457 17.5099 6.38161 17.5099C9.90228 17.5099 12.7632 14.1438 12.7632 10.0329V8.35192C13.4048 9.91123 14.1932 11.498 15.1511 12.8976L13.1266 24H16.5059L17.974 15.9443C19.2581 16.9027 20.7353 17.5089 22.4299 17.5089C26.0548 17.5089 29 14.0486 29 9.82237C29 5.59087 26.0548 2.15277 22.4299 2.15277L22.429 2.15383Z" fill="#34c759"/>
</svg>
