<svg width="16" height="20" viewBox="0 0 18 22" fill="none" xmlns="http://www.w3.org/2000/svg">
<path fill-rule="evenodd" clip-rule="evenodd" d="M11.6129 0.282051C11.6129 0.207247 11.5823 0.135506 11.5279 0.082611C11.4734 0.0297161 11.3996 0 11.3226 0H3.19355C2.34657 0 1.53427 0.326876 0.935368 0.90872C0.336462 1.49056 0 2.27971 0 3.10256V18.8974C0 19.7203 0.336462 20.5094 0.935368 21.0913C1.53427 21.6731 2.34657 22 3.19355 22H14.8065C15.6534 22 16.4657 21.6731 17.0646 21.0913C17.6635 20.5094 18 19.7203 18 18.8974V7.78123C18 7.70643 17.9694 7.63469 17.915 7.58179C17.8605 7.5289 17.7867 7.49918 17.7097 7.49918H12.4839C12.2529 7.49918 12.0313 7.41003 11.868 7.25135C11.7047 7.09266 11.6129 6.87744 11.6129 6.65303V0.282051ZM12.4839 11.2821C12.7149 11.2821 12.9364 11.3712 13.0997 11.5299C13.2631 11.6886 13.3548 11.9038 13.3548 12.1282C13.3548 12.3526 13.2631 12.5678 13.0997 12.7265C12.9364 12.8852 12.7149 12.9744 12.4839 12.9744H5.51613C5.28513 12.9744 5.0636 12.8852 4.90026 12.7265C4.73692 12.5678 4.64516 12.3526 4.64516 12.1282C4.64516 11.9038 4.73692 11.6886 4.90026 11.5299C5.0636 11.3712 5.28513 11.2821 5.51613 11.2821H12.4839ZM12.4839 15.7949C12.7149 15.7949 12.9364 15.884 13.0997 16.0427C13.2631 16.2014 13.3548 16.4166 13.3548 16.641C13.3548 16.8654 13.2631 17.0807 13.0997 17.2393C12.9364 17.398 12.7149 17.4872 12.4839 17.4872H5.51613C5.28513 17.4872 5.0636 17.398 4.90026 17.2393C4.73692 17.0807 4.64516 16.8654 4.64516 16.641C4.64516 16.4166 4.73692 16.2014 4.90026 16.0427C5.0636 15.884 5.28513 15.7949 5.51613 15.7949H12.4839Z" fill="#F8FAFC" fill-opacity="0.78"/>
<path d="M13.3548 0.647573C13.3548 0.439983 13.579 0.307983 13.745 0.437727C13.8856 0.548291 14.0121 0.676906 14.1201 0.823573L17.6191 5.55865C17.6981 5.66696 17.6121 5.80685 17.4751 5.80685H13.6452C13.5682 5.80685 13.4943 5.77714 13.4399 5.72424C13.3854 5.67135 13.3548 5.59961 13.3548 5.5248V0.647573Z" fill="#F8FAFC" fill-opacity="0.78"/>
</svg>
