<svg width="18" height="18" viewBox="0 0 22 22" fill="none" xmlns="http://www.w3.org/2000/svg">
<path d="M11 22C9.47833 22 8.04833 21.7111 6.71 21.1332C5.37167 20.5553 4.2075 19.7718 3.2175 18.7825C2.2275 17.7925 1.44393 16.6283 0.8668 15.29C0.289667 13.9517 0.000733333 12.5217 0 11C0 9.47833 0.288933 8.04833 0.8668 6.71C1.44467 5.37167 2.22823 4.2075 3.2175 3.2175C4.2075 2.2275 5.37167 1.44393 6.71 0.8668C8.04833 0.289667 9.47833 0.000733333 11 0C12.5217 0 13.9517 0.288933 15.29 0.8668C16.6283 1.44467 17.7925 2.22823 18.7825 3.2175C19.7725 4.2075 20.5564 5.37167 21.1343 6.71C21.7122 8.04833 22.0007 9.47833 22 11V12.595C22 13.6767 21.6289 14.5981 20.8868 15.3593C20.1447 16.1205 19.2324 16.5007 18.15 16.5C17.5083 16.5 16.9033 16.3625 16.335 16.0875C15.7667 15.8125 15.29 15.4183 14.905 14.905C14.3733 15.4367 13.7727 15.8356 13.1032 16.1018C12.4337 16.368 11.7326 16.5007 11 16.5C9.47833 16.5 8.18107 15.9636 7.1082 14.8907C6.03533 13.8178 5.49927 12.5209 5.5 11C5.5 9.47833 6.03643 8.18106 7.1093 7.1082C8.18217 6.03533 9.47907 5.49927 11 5.5C12.5217 5.5 13.8189 6.03643 14.8918 7.1093C15.9647 8.18217 16.5007 9.47906 16.5 11V12.595C16.5 13.0717 16.6558 13.475 16.9675 13.805C17.2792 14.135 17.6733 14.3 18.15 14.3C18.6267 14.3 19.0208 14.135 19.3325 13.805C19.6442 13.475 19.8 13.0717 19.8 12.595V11C19.8 8.54333 18.9475 6.4625 17.2425 4.7575C15.5375 3.0525 13.4567 2.2 11 2.2C8.54333 2.2 6.4625 3.0525 4.7575 4.7575C3.0525 6.4625 2.2 8.54333 2.2 11C2.2 13.4567 3.0525 15.5375 4.7575 17.2425C6.4625 18.9475 8.54333 19.8 11 19.8H15.4C15.7117 19.8 15.9731 19.9056 16.1843 20.1168C16.3955 20.328 16.5007 20.5891 16.5 20.9C16.5 21.2117 16.3944 21.4731 16.1832 21.6843C15.972 21.8955 15.7109 22.0007 15.4 22H11ZM11 14.3C11.9167 14.3 12.6958 13.9792 13.3375 13.3375C13.9792 12.6958 14.3 11.9167 14.3 11C14.3 10.0833 13.9792 9.30416 13.3375 8.6625C12.6958 8.02083 11.9167 7.7 11 7.7C10.0833 7.7 9.30417 8.02083 8.6625 8.6625C8.02083 9.30416 7.7 10.0833 7.7 11C7.7 11.9167 8.02083 12.6958 8.6625 13.3375C9.30417 13.9792 10.0833 14.3 11 14.3Z" fill="#F8FAFC" fill-opacity="0.78"/>
</svg>
