<svg width="18" height="18" viewBox="0 0 26 26" fill="none" xmlns="http://www.w3.org/2000/svg">
<path d="M8.2 11.2H17.8M8.2 15.4H14.8M19 2.60561C17.1766 1.55069 15.1066 0.996768 13 1.00001C6.3724 1.00001 1 6.37241 1 13C1 14.92 1.4512 16.7344 2.2516 18.3436C2.4652 18.7708 2.536 19.2592 2.4124 19.7212L1.6984 22.3924C1.62795 22.6567 1.62821 22.9348 1.69917 23.1989C1.77012 23.4631 1.90927 23.7039 2.10267 23.8973C2.29606 24.0907 2.5369 24.2299 2.80104 24.3008C3.06518 24.3718 3.34333 24.372 3.6076 24.3016L6.2788 23.5876C6.74249 23.4709 7.23283 23.5277 7.6576 23.7472C9.31711 24.5735 11.1461 25.0025 13 25C19.6276 25 25 19.6276 25 13C25 10.8148 24.4156 8.76401 23.3944 7.00001" stroke="#F8FAFC" stroke-width="1.5" stroke-linecap="round"/>
</svg>
