<svg width="22" height="22" viewBox="0 0 24 24" fill="none" xmlns="http://www.w3.org/2000/svg">
<path 
fill-rule="evenodd" 
clip-rule="evenodd" 
d="M6.32884 0H15.6712C16.2544 0 16.7497 7.62385e-09 17.158 0.0419535C17.5939 0.0869768 17.997 0.185209 18.3777 0.420558C18.7573 0.655907 19.0254 0.972093 19.2607 1.34149C19.4807 1.6894 19.7028 2.13144 19.9637 2.6533L19.9801 2.68707C19.9903 2.70753 19.9995 2.72698 20.0077 2.74847L21.4433 6.37795C21.6153 6.81079 21.8046 7.35005 21.8598 7.90056C21.9161 8.4654 21.8393 9.11107 21.3963 9.67079C21.0292 10.137 20.5243 10.4754 19.9535 10.6378V20.4651H21.2326C21.4361 20.4651 21.6313 20.546 21.7752 20.6899C21.9191 20.8338 22 21.029 22 21.2326C22 21.4361 21.9191 21.6313 21.7752 21.7752C21.6313 21.9191 21.4361 22 21.2326 22H0.767442C0.563904 22 0.368702 21.9191 0.224779 21.7752C0.0808553 21.6313 0 21.4361 0 21.2326C0 21.029 0.0808553 20.8338 0.224779 20.6899C0.368702 20.546 0.563904 20.4651 0.767442 20.4651H2.04651V10.6378C1.4759 10.4757 0.971 10.1376 0.603721 9.67181C0.161674 9.11107 0.0839069 8.46437 0.140186 7.90158C0.195442 7.34902 0.385767 6.81079 0.555628 6.37795L1.99228 2.74744C2.00058 2.72658 2.0098 2.7061 2.01991 2.68605L2.03628 2.6533C2.29721 2.13144 2.51823 1.68837 2.73926 1.34149C2.9746 0.972093 3.2427 0.655907 3.62233 0.420558C4.00298 0.185209 4.40614 0.0869768 4.84102 0.0419535C5.25033 7.62385e-09 5.74558 0 6.32884 0ZM17.1395 9.86112C17.4879 10.2311 17.9299 10.4998 18.4186 10.6388V20.4651H14.3256V17.6184C14.3256 17.1682 14.3256 16.7793 14.2969 16.4621C14.2662 16.1245 14.1987 15.7909 14.0176 15.4767C13.8154 15.1266 13.5246 14.8358 13.1744 14.6336C12.8603 14.4525 12.5267 14.3849 12.19 14.3542C11.8708 14.3256 11.483 14.3256 11.0338 14.3256H10.9673C10.517 14.3256 10.1282 14.3256 9.81098 14.3542C9.4733 14.3849 9.13972 14.4525 8.82558 14.6336C8.47536 14.8357 8.18455 15.1265 7.98242 15.4767C7.8013 15.7909 7.73377 16.1245 7.70307 16.4611C7.67442 16.7804 7.67442 17.1682 7.67442 17.6174V20.4651H3.5814V10.6378C4.07003 10.4991 4.51202 10.2307 4.86047 9.86112C5.12316 10.1403 5.44029 10.3627 5.79227 10.5146C6.14425 10.6665 6.52362 10.7446 6.90698 10.7442C7.7133 10.7442 8.44084 10.4055 8.95349 9.86112C9.21619 10.1403 9.53331 10.3627 9.88529 10.5146C10.2373 10.6665 10.6166 10.7446 11 10.7442C11.3834 10.7447 11.7628 10.6666 12.1148 10.5148C12.4668 10.3629 12.7839 10.1404 13.0465 9.86112C13.3092 10.1403 13.6263 10.3627 13.9783 10.5146C14.3303 10.6665 14.7097 10.7446 15.093 10.7442C15.4764 10.7447 15.8558 10.6666 16.2078 10.5148C16.5598 10.3629 16.8769 10.1404 17.1395 9.86112ZM9.2093 20.4651H12.7907V17.6512C12.7907 17.159 12.7907 16.8407 12.7682 16.6003C12.7477 16.37 12.7119 16.2861 12.6873 16.2442C12.6201 16.1278 12.5234 16.0311 12.407 15.9638C12.366 15.9393 12.2811 15.9045 12.0509 15.883C11.701 15.8614 11.3505 15.8539 11 15.8605C10.5078 15.8605 10.1896 15.8605 9.94912 15.883C9.71888 15.9034 9.63498 15.9393 9.59302 15.9638C9.47662 16.0311 9.37994 16.1278 9.31265 16.2442C9.28809 16.2851 9.25228 16.37 9.23181 16.6003C9.21033 16.8407 9.2093 17.159 9.2093 17.6512V20.4651ZM5.62791 7.93023C5.62791 8.26946 5.76267 8.5948 6.00254 8.83467C6.24241 9.07454 6.56775 9.2093 6.90698 9.2093C7.24621 9.2093 7.57154 9.07454 7.81142 8.83467C8.05129 8.5948 8.18605 8.26946 8.18605 7.93023C8.18605 7.72669 8.2669 7.53149 8.41083 7.38757C8.55475 7.24365 8.74995 7.16279 8.95349 7.16279C9.15703 7.16279 9.35223 7.24365 9.49615 7.38757C9.64007 7.53149 9.72093 7.72669 9.72093 7.93023C9.72093 8.26946 9.85569 8.5948 10.0956 8.83467C10.3354 9.07454 10.6608 9.2093 11 9.2093C11.3392 9.2093 11.6646 9.07454 11.9044 8.83467C12.1443 8.5948 12.2791 8.26946 12.2791 7.93023C12.2791 7.72669 12.3599 7.53149 12.5038 7.38757C12.6478 7.24365 12.843 7.16279 13.0465 7.16279C13.2501 7.16279 13.4453 7.24365 13.5892 7.38757C13.7331 7.53149 13.814 7.72669 13.814 7.93023C13.814 8.26946 13.9487 8.5948 14.1886 8.83467C14.4285 9.07454 14.7538 9.2093 15.093 9.2093C15.4323 9.2093 15.7576 9.07454 15.9975 8.83467C16.2373 8.5948 16.3721 8.26946 16.3721 7.93023C16.3721 7.72669 16.4529 7.53149 16.5969 7.38757C16.7408 7.24365 16.936 7.16279 17.1395 7.16279C17.3431 7.16279 17.5383 7.24365 17.6822 7.38757C17.8261 7.53149 17.907 7.72669 17.907 7.93023C17.9071 8.19607 17.99 8.45527 18.1442 8.67181C18.2984 8.88834 18.5163 9.05145 18.7675 9.13844C19.0187 9.22544 19.2907 9.23201 19.5458 9.15723C19.8009 9.08245 20.0264 8.93005 20.1909 8.72121C20.3075 8.57386 20.3648 8.37126 20.3321 8.05405C20.2993 7.72456 20.1776 7.35005 20.0169 6.94279L18.5926 3.34298C18.3183 2.79554 18.1352 2.43228 17.9653 2.16623C17.8016 1.90837 17.6849 1.79684 17.5703 1.72623C17.4567 1.6546 17.3043 1.60037 17.0004 1.56865C16.6791 1.53591 16.2636 1.53488 15.6333 1.53488H6.3667C5.73535 1.53488 5.31991 1.53488 4.99963 1.56865C4.69572 1.60037 4.54326 1.65563 4.42967 1.72623C4.31507 1.79684 4.19842 1.90837 4.0347 2.16623C3.86381 2.43228 3.68167 2.79554 3.40744 3.34298L1.98307 6.94279C1.82242 7.35005 1.70065 7.72456 1.66791 8.05405C1.63619 8.37126 1.69247 8.57386 1.80912 8.72121C1.9736 8.93005 2.19907 9.08245 2.45417 9.15723C2.70927 9.23201 2.98134 9.22544 3.23254 9.13844C3.48374 9.05145 3.70159 8.88834 3.8558 8.67181C4.01002 8.45527 4.09293 8.19607 4.09302 7.93023C4.09302 7.72669 4.17388 7.53149 4.3178 7.38757C4.46172 7.24365 4.65693 7.16279 4.86047 7.16279C5.064 7.16279 5.25921 7.24365 5.40313 7.38757C5.54705 7.53149 5.62791 7.72669 5.62791 7.93023Z"
fill="#F8FAFCC7"/>
</svg>
