<svg width="21" height="22" viewBox="0 0 24 25" fill="none" xmlns="http://www.w3.org/2000/svg">
<path fill-rule="evenodd" clip-rule="evenodd" d="M22.139 0.844156C22.139 0.646795 22.0606 0.457518 21.9211 0.317962C21.7815 0.178407 21.5922 0.100006 21.3949 0.100006C21.1975 0.100006 21.0082 0.178407 20.8687 0.317962C20.7291 0.457518 20.6507 0.646795 20.6507 0.844156V1.96038H19.5345C19.3371 1.96038 19.1479 2.03878 19.0083 2.17834C18.8687 2.31789 18.7903 2.50717 18.7903 2.70453C18.7903 2.90189 18.8687 3.09117 19.0083 3.23072C19.1479 3.37028 19.3371 3.44868 19.5345 3.44868H20.6507V4.5649C20.6507 4.76226 20.7291 4.95154 20.8687 5.0911C21.0082 5.23065 21.1975 5.30905 21.3949 5.30905C21.5922 5.30905 21.7815 5.23065 21.9211 5.0911C22.0606 4.95154 22.139 4.76226 22.139 4.5649V3.44868H23.2552C23.4526 3.44868 23.6419 3.37028 23.7814 3.23072C23.921 3.09117 23.9994 2.90189 23.9994 2.70453C23.9994 2.50717 23.921 2.31789 23.7814 2.17834C23.6419 2.03878 23.4526 1.96038 23.2552 1.96038H22.139V0.844156ZM18.3327 5.76671C18.4193 5.85311 18.488 5.95576 18.5349 6.06877C18.5818 6.18178 18.606 6.30293 18.606 6.42528C18.606 6.54763 18.5818 6.66878 18.5349 6.78179C18.488 6.8948 18.4193 6.99744 18.3327 7.08385L16.4723 8.94422C16.3858 9.03059 16.2832 9.09907 16.1702 9.14576C16.0573 9.19245 15.9362 9.21644 15.814 9.21636C15.6918 9.21627 15.5708 9.19211 15.4579 9.14526C15.345 9.09841 15.2425 9.02978 15.1561 8.94329C14.9817 8.76863 14.8838 8.53183 14.884 8.28499C14.8841 8.16277 14.9082 8.04176 14.9551 7.92888C15.0019 7.81599 15.0705 7.71344 15.157 7.62708L17.0174 5.76671C17.1918 5.59232 17.4284 5.49436 17.675 5.49436C17.9217 5.49436 18.1583 5.59232 18.3327 5.76671ZM14.6119 9.48745C14.6986 9.57386 14.7673 9.67651 14.8142 9.78952C14.8611 9.90252 14.8852 10.0237 14.8852 10.146C14.8852 10.2684 14.8611 10.3895 14.8142 10.5025C14.7673 10.6155 14.6986 10.7182 14.6119 10.8046L1.58932 23.8272C1.50284 23.9137 1.40017 23.9823 1.28717 24.0291C1.17417 24.0759 1.05306 24.1 0.930752 24.1C0.808443 24.1 0.687333 24.0759 0.574335 24.0291C0.461337 23.9823 0.358664 23.9137 0.272179 23.8272C0.185694 23.7407 0.117091 23.6381 0.0702854 23.5251C0.0234801 23.4121 -0.000610352 23.291 -0.000610352 23.1686C-0.000610352 23.0463 0.0234801 22.9252 0.0702854 22.8122C0.117091 22.6992 0.185694 22.5966 0.272179 22.5101L13.2948 9.48745C13.3812 9.40083 13.4839 9.3321 13.5969 9.28521C13.7099 9.23831 13.831 9.21418 13.9534 9.21418C14.0757 9.21418 14.1969 9.23831 14.3099 9.28521C14.4229 9.3321 14.5255 9.40083 14.6119 9.48745ZM21.3949 9.40188C21.8041 9.40188 22.139 9.73674 22.139 10.146V11.2623H23.2552C23.4526 11.2623 23.6419 11.3407 23.7814 11.4802C23.921 11.6198 23.9994 11.809 23.9994 12.0064C23.9994 12.2038 23.921 12.393 23.7814 12.5326C23.6419 12.6721 23.4526 12.7506 23.2552 12.7506H22.139V13.8668C22.139 14.0641 22.0606 14.2534 21.9211 14.393C21.7815 14.5325 21.5922 14.6109 21.3949 14.6109C21.1975 14.6109 21.0082 14.5325 20.8687 14.393C20.7291 14.2534 20.6507 14.0641 20.6507 13.8668V12.7506H19.5345C19.3371 12.7506 19.1479 12.6721 19.0083 12.5326C18.8687 12.393 18.7903 12.2038 18.7903 12.0064C18.7903 11.809 18.8687 11.6198 19.0083 11.4802C19.1479 11.3407 19.3371 11.2623 19.5345 11.2623H20.6507V10.146C20.6507 9.73674 20.9856 9.40188 21.3949 9.40188ZM12.8371 0.844156C12.8371 0.646795 12.7587 0.457518 12.6192 0.317962C12.4796 0.178407 12.2904 0.100006 12.093 0.100006C11.8956 0.100006 11.7064 0.178407 11.5668 0.317962C11.4272 0.457518 11.3488 0.646795 11.3488 0.844156V1.96038H10.2326C10.0353 1.96038 9.84598 2.03878 9.70643 2.17834C9.56687 2.31789 9.48847 2.50717 9.48847 2.70453C9.48847 2.90189 9.56687 3.09117 9.70643 3.23072C9.84598 3.37028 10.0353 3.44868 10.2326 3.44868H11.3488V4.5649C11.3488 4.76226 11.4272 4.95154 11.5668 5.0911C11.7064 5.23065 11.8956 5.30905 12.093 5.30905C12.2904 5.30905 12.4796 5.23065 12.6192 5.0911C12.7587 4.95154 12.8371 4.76226 12.8371 4.5649V3.44868H13.9534C14.1507 3.44868 14.34 3.37028 14.4796 3.23072C14.6191 3.09117 14.6975 2.90189 14.6975 2.70453C14.6975 2.50717 14.6191 2.31789 14.4796 2.17834C14.34 2.03878 14.1507 1.96038 13.9534 1.96038H12.8371V0.844156Z" fill="#F8FAFC" fill-opacity="0.780392"/>
</svg>
